<mxfile host="app.diagrams.net" modified="2024-01-17T18:35:27.185Z" agent="Mozilla/5.0 (Macintosh; Intel Mac OS X 10_15_7) AppleWebKit/537.36 (KHTML, like Gecko) Chrome/120.0.0.0 Safari/537.36" version="22.1.21" etag="9r_SOX-OQoideufQs3t9" type="github">
  <diagram name="Page-1" id="ezUsGM6ytYJl71NWdpL0">
    <mxGraphModel>
      <root>
        <mxCell id="0" />
        <mxCell id="1" parent="0" />
      </root>
    </mxGraphModel>
  </diagram>
</mxfile>
